<svg width="327" height="59" viewBox="0 0 327 59" fill="none" xmlns="http://www.w3.org/2000/svg">
<path d="M27.5979 5.85411C28.1966 4.01149 30.8034 4.01148 31.4021 5.8541L35.6741 19.002C35.9419 19.8261 36.7098 20.384 37.5762 20.384H51.4008C53.3382 20.384 54.1438 22.8632 52.5764 24.002L41.3921 32.1279C40.6911 32.6372 40.3978 33.5399 40.6655 34.364L44.9375 47.5119C45.5363 49.3545 43.4273 50.8868 41.8599 49.748L30.6756 41.6221C29.9746 41.1128 29.0254 41.1128 28.3244 41.6221L17.1401 49.748C15.5727 50.8868 13.4637 49.3545 14.0624 47.5119L18.3345 34.364C18.6022 33.5399 18.3089 32.6372 17.6079 32.1279L6.42363 24.002C4.85621 22.8632 5.66175 20.384 7.5992 20.384H21.4238C22.2902 20.384 23.0581 19.8261 23.3259 19.002L27.5979 5.85411Z" fill="#FFD336"/>
<path d="M94.5979 5.85411C95.1966 4.01149 97.8034 4.01148 98.4021 5.8541L102.674 19.002C102.942 19.8261 103.71 20.384 104.576 20.384H118.401C120.338 20.384 121.144 22.8632 119.576 24.002L108.392 32.1279C107.691 32.6372 107.398 33.5399 107.666 34.364L111.938 47.5119C112.536 49.3545 110.427 50.8868 108.86 49.748L97.6756 41.6221C96.9746 41.1128 96.0254 41.1128 95.3244 41.6221L84.1401 49.748C82.5727 50.8868 80.4637 49.3545 81.0624 47.5119L85.3345 34.364C85.6022 33.5399 85.3089 32.6372 84.6079 32.1279L73.4236 24.002C71.8562 22.8632 72.6618 20.384 74.5992 20.384H88.4238C89.2902 20.384 90.0581 19.8261 90.3259 19.002L94.5979 5.85411Z" fill="#FFD336"/>
<path d="M161.598 5.85411C162.197 4.01149 164.803 4.01148 165.402 5.8541L169.674 19.002C169.942 19.8261 170.71 20.384 171.576 20.384H185.401C187.338 20.384 188.144 22.8632 186.576 24.002L175.392 32.1279C174.691 32.6372 174.398 33.5399 174.666 34.364L178.938 47.5119C179.536 49.3545 177.427 50.8868 175.86 49.748L164.676 41.6221C163.975 41.1128 163.025 41.1128 162.324 41.6221L151.14 49.748C149.573 50.8868 147.464 49.3545 148.062 47.5119L152.334 34.364C152.602 33.5399 152.309 32.6372 151.608 32.1279L140.424 24.002C138.856 22.8632 139.662 20.384 141.599 20.384H155.424C156.29 20.384 157.058 19.8261 157.326 19.002L161.598 5.85411Z" fill="#FFD336"/>
<path d="M228.598 5.85411C229.197 4.01149 231.803 4.01148 232.402 5.8541L236.674 19.002C236.942 19.8261 237.71 20.384 238.576 20.384H252.401C254.338 20.384 255.144 22.8632 253.576 24.002L242.392 32.1279C241.691 32.6372 241.398 33.5399 241.666 34.364L245.938 47.5119C246.536 49.3545 244.427 50.8868 242.86 49.748L231.676 41.6221C230.975 41.1128 230.025 41.1128 229.324 41.6221L218.14 49.748C216.573 50.8868 214.464 49.3545 215.062 47.5119L219.334 34.364C219.602 33.5399 219.309 32.6372 218.608 32.1279L207.424 24.002C205.856 22.8632 206.662 20.384 208.599 20.384H222.424C223.29 20.384 224.058 19.8261 224.326 19.002L228.598 5.85411Z" fill="#C4C4C4"/>
<path d="M295.598 5.85411C296.197 4.01149 298.803 4.01148 299.402 5.8541L303.674 19.002C303.942 19.8261 304.71 20.384 305.576 20.384H319.401C321.338 20.384 322.144 22.8632 320.576 24.002L309.392 32.1279C308.691 32.6372 308.398 33.5399 308.666 34.364L312.938 47.5119C313.536 49.3545 311.427 50.8868 309.86 49.748L298.676 41.6221C297.975 41.1128 297.025 41.1128 296.324 41.6221L285.14 49.748C283.573 50.8868 281.464 49.3545 282.062 47.5119L286.334 34.364C286.602 33.5399 286.309 32.6372 285.608 32.1279L274.424 24.002C272.856 22.8632 273.662 20.384 275.599 20.384H289.424C290.29 20.384 291.058 19.8261 291.326 19.002L295.598 5.85411Z" fill="#C4C4C4"/>
</svg>
